<?xml version="1.0" encoding="UTF-8"?>
<!-- 分享卡片视觉 Mockup：用于确认布局、信息层级和文案，不是最终生产组件。 -->
<svg width="1080" height="1080" viewBox="0 0 1080 1080" fill="none" xmlns="http://www.w3.org/2000/svg">
  <defs>
    <linearGradient id="bg" x1="80" y1="40" x2="1000" y2="1060" gradientUnits="userSpaceOnUse">
      <stop stop-color="#111B3D"/>
      <stop offset="0.52" stop-color="#20205C"/>
      <stop offset="1" stop-color="#381D63"/>
    </linearGradient>
    <linearGradient id="panel" x1="160" y1="150" x2="900" y2="980" gradientUnits="userSpaceOnUse">
      <stop stop-color="#FFFFFF" stop-opacity="0.16"/>
      <stop offset="1" stop-color="#FFFFFF" stop-opacity="0.06"/>
    </linearGradient>
    <linearGradient id="accent" x1="160" y1="420" x2="920" y2="770" gradientUnits="userSpaceOnUse">
      <stop stop-color="#7DE3FF"/>
      <stop offset="1" stop-color="#B58CFF"/>
    </linearGradient>
    <filter id="shadow" x="90" y="90" width="900" height="930" filterUnits="userSpaceOnUse">
      <feDropShadow dx="0" dy="24" stdDeviation="28" flood-color="#050817" flood-opacity="0.42"/>
    </filter>
  </defs>

  <rect width="1080" height="1080" rx="48" fill="url(#bg)"/>
  <circle cx="140" cy="160" r="2.5" fill="#B8DFFF" opacity="0.8"/>
  <circle cx="930" cy="135" r="3" fill="#D7C6FF" opacity="0.8"/>
  <circle cx="940" cy="910" r="2.5" fill="#B8DFFF" opacity="0.75"/>
  <circle cx="120" cy="880" r="2" fill="#D7C6FF" opacity="0.65"/>
  <path d="M54 270C220 80 470 54 715 110C900 152 1010 270 1044 446" stroke="#9D9AFF" stroke-opacity="0.18" stroke-width="2"/>
  <path d="M28 790C240 970 505 1018 768 950C930 908 1000 830 1050 728" stroke="#80E8FF" stroke-opacity="0.14" stroke-width="2"/>

  <g filter="url(#shadow)">
    <rect x="120" y="100" width="840" height="880" rx="42" fill="url(#panel)" stroke="#FFFFFF" stroke-opacity="0.22"/>
  </g>

  <g font-family="Inter, Segoe UI, Arial, sans-serif" fill="#F8FAFF">
    <g transform="translate(176 158)">
      <circle cx="18" cy="18" r="18" fill="#7DE3FF" fill-opacity="0.18" stroke="#7DE3FF" stroke-width="2"/>
      <circle cx="18" cy="18" r="5" fill="#7DE3FF"/>
      <ellipse cx="18" cy="18" rx="29" ry="11" transform="rotate(-28 18 18)" stroke="#B58CFF" stroke-width="2"/>
      <text x="52" y="25" font-size="24" font-weight="700" letter-spacing="0.4">the-star-way</text>
    </g>
    <text x="820" y="184" text-anchor="end" font-size="17" font-weight="700" letter-spacing="3" fill="#9EEAFF">STAR DNA</text>

    <text x="176" y="300" font-size="68" font-weight="800" letter-spacing="-2">patdelphi</text>
    <text x="176" y="344" font-size="22" fill="#BFC8E9">A developer map built from GitHub stars</text>

    <text x="176" y="420" font-size="16" font-weight="700" letter-spacing="2.5" fill="#A9B5DA">TOP INTERESTS</text>
    <g font-size="18" font-weight="600">
      <rect x="176" y="446" width="132" height="44" rx="22" fill="#7DE3FF" fill-opacity="0.18" stroke="#7DE3FF" stroke-opacity="0.55"/>
      <text x="242" y="474" text-anchor="middle">AI / LLM</text>
      <rect x="322" y="446" width="132" height="44" rx="22" fill="#B58CFF" fill-opacity="0.18" stroke="#B58CFF" stroke-opacity="0.55"/>
      <text x="388" y="474" text-anchor="middle">Frontend</text>
      <rect x="468" y="446" width="132" height="44" rx="22" fill="#7DE3FF" fill-opacity="0.18" stroke="#7DE3FF" stroke-opacity="0.55"/>
      <text x="534" y="474" text-anchor="middle">DevTools</text>
      <rect x="614" y="446" width="146" height="44" rx="22" fill="#B58CFF" fill-opacity="0.18" stroke="#B58CFF" stroke-opacity="0.55"/>
      <text x="687" y="474" text-anchor="middle">Cloudflare</text>
      <rect x="774" y="446" width="126" height="44" rx="22" fill="#7DE3FF" fill-opacity="0.18" stroke="#7DE3FF" stroke-opacity="0.55"/>
      <text x="837" y="474" text-anchor="middle">Automation</text>
    </g>

    <g transform="translate(176 550)">
      <rect width="350" height="132" rx="24" fill="#0C1430" fill-opacity="0.38" stroke="#FFFFFF" stroke-opacity="0.12"/>
      <text x="28" y="42" font-size="17" fill="#A9B5DA">STARRED REPOS</text>
      <text x="28" y="94" font-size="42" font-weight="800">691</text>
      <text x="112" y="92" font-size="20" fill="#C8D0EA">repositories</text>
    </g>
    <g transform="translate(554 550)">
      <rect width="346" height="132" rx="24" fill="#0C1430" fill-opacity="0.38" stroke="#FFFFFF" stroke-opacity="0.12"/>
      <text x="28" y="42" font-size="17" fill="#A9B5DA">HIDDEN GEMS</text>
      <text x="28" y="94" font-size="42" font-weight="800">18</text>
      <text x="100" y="92" font-size="20" fill="#C8D0EA"> 발견项目</text>
    </g>

    <rect x="176" y="730" width="724" height="142" rx="26" fill="url(#accent)" fill-opacity="0.13" stroke="#A7E9FF" stroke-opacity="0.32"/>
    <text x="208" y="776" font-size="16" font-weight="700" letter-spacing="2.5" fill="#A9EFFF">LEARNING PATH</text>
    <text x="208" y="828" font-size="28" font-weight="700">AI-native full-stack tooling</text>

    <text x="176" y="925" font-size="16" fill="#A9B5DA">Explore your developer map</text>
    <g transform="translate(810 894)">
      <rect width="90" height="54" rx="10" fill="#F5F7FF" fill-opacity="0.92"/>
      <path d="M12 12h18v18H12V12Zm48 0h18v18H60V12ZM12 36h18v18H12V36Zm28-24h8v8h-8v-8Zm0 20h8v8h-8v-8Zm20 4h8v8h-8v-8Zm-20 16h8v-8h-8v8Zm28-16h8v-8h-8v8Z" fill="#20205C"/>
    </g>
    <text x="810" y="966" text-anchor="start" font-size="14" fill="#C5CDEF">starway.patdelphi.xyz</text>
  </g>
</svg>
